<svg version="1.0" xmlns="http://www.w3.org/2000/svg"
 width="668px" style="transform:scale(1,1.001);" height="375.75px" viewBox="0 0 320.000000 180.000000"
 preserveAspectRatio="xMidYMid meet">
<g transform="translate(0.000000,180.000000) scale(0.100000,-0.100000)"
fill="#000000" stroke="none">
<path d="M0 905 l0 -895 1600 0 1600 0 0 895 0 895 -1600 0 -1600 0 0 -895z m1110 470
c0 -69 2 -78 26 -100 l27 -25 -27 -21 c-21 -16 -25 -26 -19 -43 4 -11 8 -49 8
-84 l0 -63 53 -18 c29 -10 64 -28 77 -41 24 -22 55 -22 55 0 0 6 -12 37 -27
68 -24 51 -27 67 -25 157 l2 99 37 38 c32 31 50 40 117 53 43 9 86 21 96 27
14 9 26 7 54 -10 21 -12 43 -22 50 -22 19 0 79 -68 141 -160 32 -47 77 -106
100 -131 23 -25 46 -55 49 -67 6 -19 9 -20 39 -7 22 10 31 19 29 32 -2 10 -5
57 -6 105 -2 48 -8 93 -13 100 -39 50 -6 102 70 113 33 5 63 1 115 -15 38 -12
80 -20 93 -18 19 2 28 -4 41 -32 10 -19 17 -55 18 -78 0 -36 -4 -45 -21 -49
-19 -5 -20 -11 -14 -57 4 -28 11 -59 16 -68 21 -39 -2 -128 -47 -178 -15 -18
-72 -117 -80 -141 -3 -9 -28 -29 -55 -45 -60 -35 -103 -97 -130 -188 -21 -68
-37 -77 -60 -34 -6 11 -23 24 -39 30 -20 6 -27 14 -23 25 5 12 7 12 14 1 7
-10 9 -10 9 2 0 9 -4 20 -9 25 -5 6 -19 38 -31 72 -18 51 -21 77 -18 157 2 82
1 96 -12 94 -11 -3 -17 -25 -22 -93 -4 -50 -10 -100 -13 -113 -7 -29 -89 -82
-127 -82 -32 0 -47 -24 -31 -49 8 -13 5 -23 -11 -42 -13 -15 -31 -31 -42 -37
-10 -6 -13 -12 -6 -12 7 0 38 -18 68 -40 55 -42 74 -44 74 -10 0 14 11 22 40
30 35 10 45 8 73 -9 18 -11 52 -23 75 -27 l42 -7 0 -72 c0 -46 -5 -76 -12 -83
-16 -13 -175 -14 -183 -1 -4 5 -26 8 -49 7 -71 -2 -115 27 -151 100 -26 54
-35 64 -67 72 -22 6 -49 25 -68 48 -17 20 -29 29 -26 20 2 -9 -2 -22 -10 -29
-8 -6 -22 -28 -31 -48 -9 -20 -18 -38 -19 -40 -2 -2 -22 13 -44 33 -22 20 -47
36 -55 36 -19 0 -35 31 -35 67 0 45 -66 174 -113 219 -109 106 -152 178 -189
318 -17 61 -39 128 -49 148 -26 51 -24 63 19 118 28 37 60 60 132 98 52 28
107 51 123 51 l27 1 0 -75z m1105 -572 c-3 -14 -12 -35 -19 -45 -13 -18 -13
-17 -13 7 0 15 6 29 13 32 8 3 14 11 14 19 0 8 3 14 6 14 3 0 3 -12 -1 -27z"/>
</g>
</svg>
